<?xml version="1.0" encoding="UTF-8"?>
<svg version="1.1" xmlns="http://www.w3.org/2000/svg" width="2400" height="361">
<path d="M0 0 C5.75445222 0.8439014 8.57082896 5.69381926 12 10 C14.70438614 13.67352551 17.24467799 17.43854027 19.75 21.25 C20.44174316 22.29631592 21.13348633 23.34263184 21.84619141 24.4206543 C28.35578689 34.36841642 34.30078506 44.57164926 40 55 C40.44037598 55.79180664 40.88075195 56.58361328 41.33447266 57.39941406 C46.44188223 66.59389346 51.05054451 75.95260141 55.1875 85.625 C55.58670654 86.52532959 55.98591309 87.42565918 56.3972168 88.35327148 C61.42397732 100.52648351 56.58379972 111.76682533 51.84765625 123.45703125 C48.73239678 130.19108237 45.33920446 132.93033984 38.62890625 135.796875 C36.83259766 136.39242187 36.83259766 136.39242187 35 137 C33.85402344 137.43828125 32.70804688 137.8765625 31.52734375 138.328125 C24.99567925 140.61993711 17.79700229 142.90326407 11.0703125 140.234375 C7.40834972 138.25408611 4.16618028 135.686456 1 133 C0.73316406 133.8765625 0.46632813 134.753125 0.19140625 135.65625 C-3.07186098 144.81479672 -8.2969479 151.58100843 -17 156 C-24.03397206 158.34465735 -31.82312333 157.8535638 -38.5625 154.875 C-39.32691406 154.48054687 -40.09132813 154.08609375 -40.87890625 153.6796875 C-42.98933633 152.76920347 -42.98933633 152.76920347 -45.0234375 153.703125 C-47.07350683 155.04822978 -49.07402947 156.44032781 -51.0625 157.875 C-61.99109246 165.11341838 -73.39683475 166.87607624 -86.19921875 164.375 C-92.70192816 162.43026448 -98.44345404 159.27310769 -104.19384766 155.73046875 C-109.12503559 152.72151099 -112.02176954 151.56326452 -117.7565918 152.8293457 C-119.2407679 153.2671197 -120.7214745 153.71676414 -122.19921875 154.17578125 C-123.87714546 154.67408399 -125.55512653 155.17220371 -127.2331543 155.67016602 C-128.56242447 156.07128098 -128.56242447 156.07128098 -129.91854858 156.48049927 C-233.06562305 187.47361854 -342.00842345 201.4980837 -633.9375 221.625 C-635.09667938 221.64573578 -636.25585876 221.66647156 -637.45016479 221.68783569 C-666.30371697 222.18570596 -695.14693142 222.01126169 -724 221.625 C-724.79688988 221.61439293 -725.59377975 221.60378586 -726.41481781 221.59285736 C-831.87653798 220.17605175 -937.68139269 214.85589335 -1122.00585938 183.79345703 C-1122.8520433 183.60647247 -1123.69822723 183.41948792 -1124.5700531 183.22683716 C-1126.14488587 182.87785726 -1127.71889657 182.52513766 -1129.29188538 182.16793823 C-1132.64767707 181.42341323 -1135.53971555 181 -1139 181 C-1139.309375 182.0209375 -1139.309375 182.0209375 -1139.625 183.0625 C-1140.82246971 185.62073075 -1142.00098582 187.6308118 -1143.6875 189.875 C-1144.14511719 190.49117187 -1144.60273437 191.10734375 -1145.07421875 191.7421875 C-1147.48390569 193.31606011 -1149.06772666 193.19445467 -1151.84838867 192.64941406 C-1156.53475059 191.23494422 -1160.90458821 189.04160497 -1165.3125 186.9375 C-1167.286251 186.00590986 -1169.26144116 185.07736075 -1171.23828125 184.15234375 C-1172.10493408 183.73976318 -1172.97158691 183.32718262 -1173.86450195 182.90209961 C-1175.92069056 181.87028837 -1175.92069056 181.87028837 -1178 182 C-1178.32871094 182.67804688 -1178.65742187 183.35609375 -1178.99609375 184.0546875 C-1188.27143876 202.20319454 -1205.00085135 213.34571615 -1224.05810547 219.68457031 C-1231.95574976 222.08203659 -1239.69656086 223.71856685 -1248 223 C-1248 221.35 -1248 219.7 -1248 218 C-1247.38705078 217.71914551 -1246.77410156 217.43829102 -1246.14257812 217.14892578 C-1221.80869182 205.96978563 -1221.80869182 205.96978563 -1200.8203125 189.6171875 C-1199 188 -1199 188 -1197 188 C-1196.731875 187.41734375 -1196.46375 186.8346875 -1196.1875 186.234375 C-1194.98785132 183.97714129 -1193.62517407 182.21646062 -1192 180.25 C-1187.4814383 174.2472392 -1187.01078923 168.73466215 -1186.625 161.4375 C-1185.9363042 150.75123678 -1184.411292 140.21401071 -1176.5859375 132.3203125 C-1173.17977158 129.48463742 -1170.00318517 129.53565968 -1165.703125 129.609375 C-1159.62607745 130.48756106 -1155.40945299 134.75153509 -1150.93359375 138.671875 C-1150.38678955 139.14713623 -1149.83998535 139.62239746 -1149.27661133 140.11206055 C-1148.21521397 141.0441761 -1147.16563638 141.99002282 -1146.1315918 142.95239258 C-1136.89966102 151.18261394 -1125.14013017 153.45257324 -1113.375 155.8125 C-1112.56543854 155.97852722 -1111.75587708 156.14455444 -1110.92178345 156.31561279 C-1014.3866239 176.07655244 -915.38431462 182.2037307 -817.11260986 185.91939545 C-815.03968871 185.99848572 -812.96685733 186.07960047 -810.89404297 186.16143799 C-765.3112434 187.95586144 -719.72029932 188.20628213 -674.10786438 188.24350959 C-669.56314506 188.24726188 -665.01843922 188.25340806 -660.47372633 188.26189792 C-628.09975226 188.32141964 -595.75765138 188.10874009 -563.3984375 187.06640625 C-561.45315438 187.00375706 -561.45315438 187.00375706 -559.46857262 186.93984222 C-448.5827011 183.28277912 -337.924776 172.4076808 -83.79296875 117.109375 C-80 116 -80 116 -78 116 C-77.42743996 119.92612596 -77.25049124 121.91988086 -79.55859375 125.24609375 C-81.31655476 127.23043203 -83.10884918 129.14261973 -85 131 C-79.58254266 135.78010941 -74.56972411 137.51201557 -67.4140625 137.30859375 C-52.72869633 135.4313382 -40.03243123 123.54358595 -30.28125 113.171875 C-29 112 -29 112 -27 112 C-24.65308804 119.16425756 -24.65308804 119.16425756 -26.375 123.3125 C-26.91125 124.199375 -27.4475 125.08625 -28 126 C-28 126.99 -28 127.98 -28 129 C-23.86589566 131.00441422 -20.57504719 131.40848636 -16 131 C-10.75700229 129.00266754 -8.48934694 124.78427628 -6 120 C-4.52523012 115.9253268 -3.46632199 111.74028794 -2.41601562 107.5390625 C-1.76168289 105.20926931 -1.14635312 103.132297 0 101 C3.19140625 99.4296875 3.19140625 99.4296875 6 99 C7 100 7 100 7.09765625 102.94140625 C7.08605469 104.13636719 7.07445313 105.33132812 7.0625 106.5625 C7.05347656 107.76003906 7.04445313 108.95757812 7.03515625 110.19140625 C7.02355469 111.11824219 7.01195313 112.04507813 7 113 C19.79659618 110.39730247 31.98179258 104.34850618 42 96 C37.86819725 88.38452042 32.91216347 82.29728679 27 76 C25.84751102 74.69334035 24.70122841 73.38116898 23.5625 72.0625 C20.80215459 68.88778403 17.97207442 65.78462564 15.125 62.6875 C-5.77758939 39.74563359 -5.77758939 39.74563359 -5.40234375 22.546875 C-4.93608145 14.77925259 -2.38443688 7.35769093 0 0 Z M-1170 147 C-1172.28728734 148.83883881 -1172.28728734 148.83883881 -1172.125 151.625 C-1172.08375 152.40875 -1172.0425 153.1925 -1172 154 C-1170.3789897 154.69685498 -1168.75303934 155.38222861 -1167.125 156.0625 C-1166.22007813 156.44535156 -1165.31515625 156.82820312 -1164.3828125 157.22265625 C-1162.01933138 158.3023998 -1162.01933138 158.3023998 -1160 157 C-1161.47582808 155.33037631 -1162.95574891 153.6643694 -1164.4375 152 C-1165.26121094 151.071875 -1166.08492187 150.14375 -1166.93359375 149.1875 C-1167.61550781 148.465625 -1168.29742188 147.74375 -1169 147 C-1169.33 147 -1169.66 147 -1170 147 Z " fill="#FFFFFF" transform="translate(2341,66)"/>
<path d="M0 0 C0.7621582 -0.01869141 1.52431641 -0.03738281 2.30957031 -0.05664062 C15.63346187 0.08971391 27.23018146 7.15083239 38.76168823 13.09222412 C60.69608002 24.36877343 82.85761385 34.39208073 106.19897461 42.44873047 C111.4590892 44.2931784 111.4590892 44.2931784 112.5625 46.5 C109.41601296 48.69714695 106.24250262 50.85171172 103.0625 53 C102.175625 53.62003906 101.28875 54.24007812 100.375 54.87890625 C91.50987015 60.81072107 85.57265712 59.84247211 75.4375 58 C52.95387756 54.23387358 31.85540678 58.02880464 10.5625 65.5 C10.59730469 66.43457031 10.63210938 67.36914062 10.66796875 68.33203125 C10.82967878 76.17881774 10.48337511 83.73229934 9.3125 91.5 C9.14850708 92.66366089 9.14850708 92.66366089 8.98120117 93.85083008 C7.91764891 100.35574756 5.71548453 105.89032178 1.5 111 C-3.88902228 113.75184116 -9.43769494 113.2520638 -15.2109375 111.8046875 C-22.01778589 109.48372773 -28.2318071 106.10098234 -34.4375 102.5 C-34.54964844 103.23347656 -34.66179688 103.96695313 -34.77734375 104.72265625 C-36.46860472 111.83796126 -41.52484456 117.24491279 -47.43359375 121.28125 C-53.3448883 124.8764233 -57.67156637 125.85610177 -64.4375 125.5 C-64.47488281 126.29921875 -64.51226563 127.0984375 -64.55078125 127.921875 C-65.63019054 145.95435965 -71.21506487 161.02627352 -83.4375 174.5 C-84.15292969 175.30824219 -84.86835937 176.11648438 -85.60546875 176.94921875 C-92.64046242 184.45556877 -100.78452241 190.0401392 -109.4375 195.5 C-110.06366211 195.89574219 -110.68982422 196.29148437 -111.33496094 196.69921875 C-171.76325169 234.19099046 -255.98802418 244.71678028 -325.75 244.75 C-327.02138824 244.75067474 -328.29277649 244.75134949 -329.60269165 244.75204468 C-349.39289735 244.73537668 -368.81318308 244.21456476 -388.4375 241.5 C-390.32130371 241.24259033 -390.32130371 241.24259033 -392.24316406 240.97998047 C-446.5461227 233.29015375 -499.35092758 215.1190957 -539.4375 176.5 C-540.02241211 175.93700195 -540.60732422 175.37400391 -541.20996094 174.79394531 C-560.06436143 156.53841408 -560.06436143 156.53841408 -560.875 149.9375 C-560.6584375 148.7309375 -560.6584375 148.7309375 -560.4375 147.5 C-556.08625397 148.98007068 -552.7040307 151.33689916 -549.0625 154.0625 C-484.16872782 201.29363554 -400.83788568 216.01718722 -322.22839737 215.81805801 C-319.96666645 215.81241686 -317.70494303 215.80959697 -315.44320679 215.80697632 C-293.97511807 215.77080812 -272.74704331 215.42267778 -251.4375 212.5 C-250.07120652 212.32067683 -248.7048298 212.1419869 -247.33837891 211.96386719 C-202.20416595 206.0130106 -156.53389552 195.56512951 -115.4375 175.5 C-114.77476074 175.17821777 -114.11202148 174.85643555 -113.42919922 174.52490234 C-99.47522622 167.65887844 -84.10989124 158.99927144 -78.09765625 143.8515625 C-76.16395151 136.96345449 -77.04602366 131.13486844 -80.14453125 124.78125 C-81.06180948 123.16284974 -82.04629087 121.58172833 -83.07421875 120.03125 C-86.30031678 115.15826277 -88.34608543 111.84393132 -87.203125 105.94921875 C-85.64927299 100.97847787 -83.60619202 96.22950917 -81.4375 91.5 C-76.87683895 91.5 -75.97803135 92.23039579 -72.4375 94.875 C-66.84147794 99.02083342 -63.5878885 101.09586571 -56.4375 100.5 C-50.03969471 98.91601726 -44.74524519 95.98158945 -41.05517578 90.41455078 C-38.44418168 85.99656591 -35.91304093 81.55693864 -33.5 77.02734375 C-27.12655635 65.236473 -21.8063049 57.02333889 -9.4375 51.5 C-8.7986084 51.1911084 -8.1597168 50.8822168 -7.50146484 50.56396484 C4.94644719 44.56758415 20.58482306 38.74506818 34.5625 39.5 C34.5625 38.84 34.5625 38.18 34.5625 37.5 C33.758125 37.26216797 33.758125 37.26216797 32.9375 37.01953125 C28.80689065 35.78985972 24.68399127 34.54501791 20.58203125 33.22265625 C19.88787109 33.00053467 19.19371094 32.77841309 18.47851562 32.54956055 C17.10464476 32.10898427 15.73217031 31.6640228 14.36132812 31.21411133 C10.11077692 29.85653086 6.0294315 28.72907341 1.5625 28.5 C0.92634766 29.2283606 0.92634766 29.2283606 0.27734375 29.97143555 C-2.35122872 32.31447259 -4.61733523 31.83825543 -8.07421875 31.79296875 C-9.37294922 31.78330078 -10.67167969 31.77363281 -12.00976562 31.76367188 C-13.38151639 31.73860585 -14.75326118 31.71321101 -16.125 31.6875 C-17.50844924 31.6724502 -18.89191401 31.6587623 -20.27539062 31.64648438 C-23.66315207 31.61107223 -27.05013139 31.56168054 -30.4375 31.5 C-30.46646561 29.92979864 -30.48692072 28.35943915 -30.50390625 26.7890625 C-30.51623291 25.91459473 -30.52855957 25.04012695 -30.54125977 24.13916016 C-30.26188613 17.03320967 -27.45839144 11.31449713 -22.546875 6.23046875 C-15.88096166 0.76195095 -8.31859384 0.13814984 0 0 Z M-18.4375 74.5 C-18.35613476 77.26641818 -17.8703274 79.01097677 -16.0234375 81.09765625 C-12.40797086 84.33883449 -9.23490282 86.32990175 -4.4375 87.5 C-4.14495082 82.52666392 -4.27245768 79.4563029 -7.4375 75.5 C-10.90351798 73.07378742 -14.60598876 72.58424438 -18.4375 74.5 Z " fill="#FFFFFF" transform="translate(696.4375,116.5)"/>
<path d="M0 0 C24.13582697 10.23978512 47.91843009 11.15891654 73.875 11.875 C73.39017988 16.62390066 72.60363442 20.01598468 70.0625 24.0625 C69.56105469 24.88105469 69.05960937 25.69960937 68.54296875 26.54296875 C65.31917637 31.05023819 65.31917637 31.05023819 62.875 32.875 C60.17967545 33.09386395 57.85797828 33.10533099 55.1875 32.9375 C29.97251822 32.190852 7.24405986 42.52308766 -14.74438477 53.77441406 C-50.11595968 71.82932065 -50.11595968 71.82932065 -67.7109375 67.66796875 C-73.31087314 65.82850769 -78.07066054 62.92906107 -82.4375 59 C-84.78695235 56.66127522 -84.78695235 56.66127522 -86.8984375 56.96875 C-89.39984236 57.98686566 -91.45177641 59.38782712 -93.63842773 60.95947266 C-121.71475536 81.09944658 -157.08020714 90.69945533 -191.125 93.875 C-192.21039063 93.98585938 -193.29578125 94.09671875 -194.4140625 94.2109375 C-225.27047897 96.83550626 -258.59098463 96.14978106 -288.26953125 86.546875 C-291.82481575 85.69883284 -291.82481575 85.69883284 -295.125 86.875 C-296.80982909 89.07130457 -296.80982909 89.07130457 -298.1875 91.75 C-301.81372611 98.34838491 -301.81372611 98.34838491 -304.125 99.875 C-309.81377588 99.80635715 -314.70725731 96.8631955 -319.6875 94.375 C-321.3528562 93.546809 -323.02075945 92.72371613 -324.69140625 91.90625 C-325.42302979 91.54080078 -326.15465332 91.17535156 -326.90844727 90.79882812 C-329.29837973 89.80273776 -331.57682431 89.30263454 -334.125 88.875 C-334.62128906 89.720625 -335.11757813 90.56625 -335.62890625 91.4375 C-347.01447978 110.57543427 -363.08759624 121.88052543 -384.65771484 127.92407227 C-391.17800216 129.57335832 -397.41101471 130.45601796 -404.125 129.875 C-404.125 128.225 -404.125 126.575 -404.125 124.875 C-403.57263672 124.62443848 -403.02027344 124.37387695 -402.45117188 124.11572266 C-386.19772461 116.69259688 -370.61863997 108.76642669 -357.125 96.875 C-356.16013672 96.03388672 -356.16013672 96.03388672 -355.17578125 95.17578125 C-353.36452063 93.49024805 -351.73523879 91.75295575 -350.125 89.875 C-349.56683594 89.22917969 -349.00867188 88.58335937 -348.43359375 87.91796875 C-343.24276128 80.7758836 -343.1758214 73.18529093 -342.54296875 64.6796875 C-341.81063326 55.18699626 -339.38231629 46.77736421 -333.0625 39.5 C-330.43722921 37.29815999 -328.3443608 36.90103045 -324.96484375 36.5 C-319.86220596 36.99832475 -316.88156471 39.07193853 -312.6875 41.875 C-311.08360858 42.89516614 -309.47678148 43.91073016 -307.8671875 44.921875 C-307.06764648 45.42525391 -306.26810547 45.92863281 -305.44433594 46.44726562 C-278.52616573 63.01752451 -247.74390259 68.10314918 -216.625 68.125 C-215.76051239 68.12567474 -214.89602478 68.12634949 -214.00534058 68.12704468 C-177.69210215 68.08220162 -139.40434832 62.01962759 -106.125 46.875 C-104.92746094 46.33101562 -103.72992188 45.78703125 -102.49609375 45.2265625 C-93.94215519 41.20691055 -85.57780489 36.48024325 -78.95703125 29.6328125 C-78.35246094 29.05273438 -77.74789063 28.47265625 -77.125 27.875 C-74.9375 27.9375 -74.9375 27.9375 -73.125 28.875 C-71.96558962 32.35323115 -72.41679116 34.33395578 -73.125 37.875 C-65.92528132 43.0176562 -59.88778036 44.83513821 -51.125 43.875 C-34.79151921 40.29064876 -19.67352324 31.81546875 -5.125 23.875 C-8.37420984 20.62579016 -12.71150283 20.03812776 -17.0625 18.8125 C-18.4870752 18.40825806 -18.4870752 18.40825806 -19.94042969 17.99584961 C-26.21319223 16.26981986 -32.55765719 14.54082105 -39.125 14.875 C-39.455 15.205 -39.785 15.535 -40.125 15.875 C-42.05167507 15.96248207 -43.98151861 15.98197334 -45.91015625 15.97265625 C-47.66489258 15.96782227 -47.66489258 15.96782227 -49.45507812 15.96289062 C-50.68677734 15.95451172 -51.91847656 15.94613281 -53.1875 15.9375 C-55.04084961 15.93073242 -55.04084961 15.93073242 -56.93164062 15.92382812 C-59.99614117 15.91199608 -63.06054721 15.89551173 -66.125 15.875 C-66.1659107 14.30751402 -66.19477871 12.73971152 -66.21875 11.171875 C-66.23615234 10.29885742 -66.25355469 9.42583984 -66.27148438 8.52636719 C-65.97763148 3.2076298 -64.06476276 -1.15999087 -60.32421875 -4.94921875 C-42.08201453 -19.57840388 -18.36070291 -7.80286828 0 0 Z M-327.125 53.875 C-328.5856285 56.52238916 -329.125 57.76948334 -329.125 60.875 C-327.00459258 61.90533882 -324.87852092 62.92402854 -322.75 63.9375 C-321.56664062 64.50597656 -320.38328125 65.07445312 -319.1640625 65.66015625 C-318.16117188 66.06105469 -317.15828125 66.46195313 -316.125 66.875 C-315.465 66.545 -314.805 66.215 -314.125 65.875 C-315.91020561 63.86888266 -317.70258712 61.8701283 -319.5 59.875 C-320.00789063 59.30265625 -320.51578125 58.7303125 -321.0390625 58.140625 C-322.36004905 56.68058723 -323.73900799 55.27347843 -325.125 53.875 C-325.785 53.875 -326.445 53.875 -327.125 53.875 Z " fill="#FFFFFF" transform="translate(404.125,159.125)"/>
<path d="M0 0 C21.45072904 26.80091983 28.91122232 75.95998754 25.78173828 109.32714844 C24.483812 118.4194756 21.2424038 126.7818132 13.875 132.5 C6.78951107 137.46259925 -2.41561844 136.8783515 -10.70703125 135.57421875 C-18.00704999 133.49032548 -22.78858784 128.24338401 -28 123 C-28.18433594 123.60585937 -28.36867188 124.21171875 -28.55859375 124.8359375 C-31.3710457 132.96079868 -35.96004544 139.8583178 -43.375 144.48046875 C-51.31722309 148.19667787 -60.02476117 149.35484613 -68.5 146.875 C-76.42035831 143.91679388 -81.55903263 139.30844989 -85.6796875 131.9453125 C-88.12313006 126.49455602 -89.58224366 120.78778177 -91 115 C-91.6290625 115.86882812 -92.258125 116.73765625 -92.90625 117.6328125 C-98.78246587 125.60199039 -104.268261 132.73666237 -114 136 C-120.17626276 136.69224488 -125.77965653 136.69243807 -131 133 C-136.19750747 127.80249253 -137.1026621 122.24624496 -137.4375 115.1875 C-137.26362645 106.99498731 -134.11797755 101.02048508 -128.6875 95 C-122.58651935 89.29040301 -115.14585051 85.25003505 -108 81 C-106.11086705 79.8708361 -104.22345506 78.73917283 -102.34057617 77.59960938 C-100.72397358 76.62233204 -99.10047606 75.65648639 -97.4765625 74.69140625 C-94.78102524 73.07697967 -94.78102524 73.07697967 -93 70 C-92.72029239 67.98554018 -92.49837143 65.96277443 -92.3125 63.9375 C-91.34899921 56.94232757 -88.71688185 52.20636959 -84 47 C-83.34 46.67 -82.68 46.34 -82 46 C-79.8843216 52.03762768 -79.73047717 57.51175507 -79.8125 63.875 C-79.81314453 64.81730469 -79.81378906 65.75960937 -79.81445312 66.73046875 C-79.84619411 71.83018686 -80.13924053 76.79640828 -80.76196289 81.85595703 C-81.80298666 91.23264497 -82.73513735 101.98212707 -77 110 C-72.61276774 114.76328074 -66.60891273 116.61518798 -60.2890625 117.2890625 C-52.70999171 117.52259129 -46.18482414 116.49247106 -40.125 111.75 C-34.17453944 104.04940399 -34.33701931 96.40161105 -35 87 C-35.73508196 81.91923858 -36.80248612 76.94246966 -37.9375 71.9375 C-42.29513618 52.39385562 -42.86015795 39.10554016 -34 21 C-32 22 -32 22 -31.33757019 23.91751099 C-31.14391373 24.75829193 -30.95025726 25.59907288 -30.75073242 26.46533203 C-30.52677292 27.41787872 -30.30281342 28.37042542 -30.07206726 29.35183716 C-29.83558975 30.39330902 -29.59911224 31.43478088 -29.35546875 32.5078125 C-29.10380447 33.58062469 -28.8521402 34.65343689 -28.59284973 35.75875854 C-27.78316321 39.21238486 -26.98424187 42.66836606 -26.1875 46.125 C-20.56252551 78.04455123 -20.56252551 78.04455123 -2 103 C1.46822926 104.73411463 5.2079795 104.45800603 9 104 C11.75 102.75 11.75 102.75 13 100 C15.30593989 82.99369328 5.49682326 63.85943138 -0.38378906 48.39306641 C-1.47877045 45.50244873 -2.56008398 42.6069776 -3.640625 39.7109375 C-3.97805725 38.83795013 -4.3154895 37.96496277 -4.66314697 37.06552124 C-7.08799607 30.55411112 -7.97764466 25.05536506 -5.72265625 18.30078125 C-5.45646484 17.48416016 -5.19027344 16.66753906 -4.91601562 15.82617188 C-4.63435547 14.99666016 -4.35269531 14.16714844 -4.0625 13.3125 C-3.51085683 11.6422115 -2.96004504 9.97164814 -2.41015625 8.30078125 C-2.04096069 7.20503784 -2.04096069 7.20503784 -1.66430664 6.0871582 C-1.02309074 4.07254785 -0.48919744 2.05625315 0 0 Z M-112.95703125 97.80078125 C-114.44386966 99.53554026 -114.44386966 99.53554026 -116 102 C-110.29233892 103.90255369 -104.14370909 103.76561039 -98.5 101.75 C-95.9031242 99.93218694 -94.41759648 98.83519296 -93 96 C-92.74936268 92.33285151 -92.74936268 92.33285151 -93 89 C-100.22644694 88.32589114 -107.76829626 93.02631652 -112.95703125 97.80078125 Z " fill="#FFFFFF" transform="translate(1065,113)"/>
<path d="M0 0 C3.33125944 1.40897822 5.07949609 2.99917092 7.27734375 5.8515625 C7.87353516 6.62113281 8.46972656 7.39070313 9.08398438 8.18359375 C10.00147461 9.39208984 10.00147461 9.39208984 10.9375 10.625 C11.54529297 11.40746094 12.15308594 12.18992187 12.77929688 12.99609375 C23.48458935 26.92336746 23.48458935 26.92336746 22.9375 32.125 C22 36 22 36 20.9375 39.0625 C18.83147029 45.66139309 20.44602028 51.93534003 21.9765625 58.47265625 C22.18248016 59.38095184 22.38839783 60.28924744 22.60055542 61.22506714 C23.0412542 63.16701163 23.48512029 65.10823961 23.93188477 67.04879761 C25.09935306 72.12501268 26.2403624 77.20716868 27.3828125 82.2890625 C27.60974792 83.29639938 27.83668335 84.30373627 28.07049561 85.34159851 C29.98213959 93.85393008 31.78893629 102.38273953 33.5 110.9375 C33.73025879 112.07517822 33.96051758 113.21285645 34.19775391 114.38500977 C40.39316965 145.72032681 36.64701774 167.41042982 19 194 C18.08513695 195.12020146 17.16979444 196.24001156 16.25390625 197.359375 C13.03703573 201.80020693 12.90604364 206.67349077 12.4375 212 C10.10219926 232.8699028 3.82553686 252.74642464 -10 269 C-10.56203125 269.66128906 -11.1240625 270.32257813 -11.703125 271.00390625 C-18.72177751 278.59651399 -27.51802005 283.37483442 -37.84765625 284.37109375 C-55.55995186 284.88801006 -72.48741902 280.04432481 -89 274 C-88.505 272.02 -88.505 272.02 -88 270 C-87.4330542 269.96559814 -86.8661084 269.93119629 -86.28198242 269.89575195 C-55.34671574 267.88818107 -31.52015699 258.89013976 -10.52001953 235.34033203 C-3.85312252 227.46501703 2.49300942 218.9588355 3.21484375 208.31640625 C2.44621332 200.02917266 -3.20096485 194.30973022 -9.109375 189.0078125 C-11.17366971 186.81556564 -11.83385365 185.97991526 -12 183 C-11.29296875 179.7578125 -11.29296875 179.7578125 -10.1875 176.125 C-9.83042969 174.93132812 -9.47335937 173.73765625 -9.10546875 172.5078125 C-8.10294495 169.32665924 -7.0677574 166.15978886 -6 163 C-5.47792969 163.27714844 -4.95585938 163.55429688 -4.41796875 163.83984375 C3.1887129 167.58323699 10.70364908 169.26369459 19 166.8125 C22.50823424 165.60654448 24.06805362 164.1699092 26 161 C27.08710699 149.4142795 22.9260403 136.39442822 20.625 125.125 C20.29569992 123.50109848 20.29569992 123.50109848 19.95974731 121.84439087 C16.82538766 106.4219311 13.59067074 91.01808118 10.11077881 75.6696167 C9.67070769 73.72043395 9.23688414 71.76982734 8.81011963 69.81768799 C6.07924855 57.38971484 2.26983441 46.09208653 -3.02709961 34.51489258 C-6.80788843 26.15560221 -8.03961351 19.6141226 -4.84765625 10.828125 C-3.33605098 7.16522063 -1.7723663 3.5447326 0 0 Z " fill="#FFFFFF" transform="translate(822,38)"/>
<path d="M0 0 C6.23341526 2.44782517 9.99400084 8.86946065 14 14 C14.47969238 14.61149902 14.95938477 15.22299805 15.45361328 15.85302734 C16.88612331 17.69949099 18.29091866 19.56375753 19.6875 21.4375 C20.13367676 22.0159668 20.57985352 22.59443359 21.03955078 23.19042969 C22.90891288 25.76108264 24.02313143 27.38100281 23.90234375 30.61328125 C22.67401105 33.86224784 21.24500802 36.9793626 19.7421875 40.109375 C17.84374759 47.50329888 20.80427691 56.04960916 22.546875 63.3046875 C23.06550258 65.5081831 23.58397005 67.71171638 24.10229492 69.9152832 C24.37206146 71.05389801 24.641828 72.19251282 24.91976929 73.3656311 C43.8141395 153.23176243 43.8141395 153.23176243 27.95703125 179.3671875 C25.02882869 184.01017826 22.09556784 188.5996923 18.7109375 192.92578125 C13.03049375 200.39298276 12.06388904 206.34924132 11.40625 215.40625 C9.76355278 237.12635772 -0.62287983 257.7453546 -17 272 C-31.23221002 283.02532471 -49.23476836 281.91305025 -66.1875 279.77734375 C-74.28837274 278.59344755 -82.1513404 276.27976587 -90 274 C-89.27563477 272.04296875 -89.27563477 272.04296875 -88 270 C-86.02319336 269.42578125 -86.02319336 269.42578125 -83.58984375 269.3125 C-82.69072266 269.25618408 -81.79160156 269.19986816 -80.86523438 269.1418457 C-79.41600586 269.07163208 -79.41600586 269.07163208 -77.9375 269 C-56.7253147 267.48706193 -40.20346663 262.51713299 -24 248 C-23.13503906 247.25492188 -22.27007812 246.50984375 -21.37890625 245.7421875 C-10.22011607 235.99310749 1.8290405 223.70959495 3.375 208.25 C3.20419601 199.83402149 -3.66613144 193.93985807 -9.109375 188.19921875 C-11 186 -11 186 -12 183 C-11.65454102 180.9152832 -11.65454102 180.9152832 -11.00390625 178.55078125 C-10.66069336 177.27944336 -10.66069336 177.27944336 -10.31054688 175.98242188 C-10.06369141 175.10134766 -9.81683594 174.22027344 -9.5625 173.3125 C-9.31951172 172.41982422 -9.07652344 171.52714844 -8.82617188 170.60742188 C-8.22490694 168.40278378 -7.61593343 166.20057655 -7 164 C-4 164 -4 164 -1 165.4375 C5.02062089 168.11616607 11.4353095 168.41365976 17.875 167.375 C21.89589004 165.60580838 23.65901306 164.80410378 26 161 C26.26674303 151.00706354 24.13306153 141.01056863 22.1875 131.25 C22.04193665 130.50786255 21.89637329 129.7657251 21.74639893 129.00109863 C18.82321633 114.16702611 15.38982128 99.45345402 11.875 84.75 C11.62164886 83.68495239 11.36829773 82.61990479 11.10726929 81.52258301 C7.53181006 66.54667109 3.81413319 51.71586443 -1.93066406 37.39697266 C-6.88046557 24.99506134 -7.4385886 17.22465247 -2.19140625 4.65234375 C-1.48900955 3.0886475 -0.76661686 1.53323373 0 0 Z " fill="#FFFFFF" transform="translate(488,38)"/>
<path d="M0 0 C-0.93794152 16.2576531 -11.53256959 31.06067494 -23 42 C-27.07907502 45.24903069 -31.02440478 48.34146826 -36 50 C-34.67324911 46.30731894 -33.02809063 43.4523167 -30.6875 40.3125 C-26.41917689 34.35110509 -22.70138795 28.18049775 -21 21 C-31.09778519 22.50311015 -40.99990011 24.69473868 -50.9375 27 C-51.78392059 27.19596771 -52.63034119 27.39193542 -53.50241089 27.59384155 C-85.12324227 34.94241994 -116.16062888 43.87690389 -147 54 C-147.66046326 54.21571655 -148.32092651 54.43143311 -149.00140381 54.65368652 C-180.11915936 64.81931511 -210.30335448 77.26193874 -240 91 C-240.96566895 91.4429541 -241.93133789 91.8859082 -242.92626953 92.34228516 C-258.54112893 99.51966093 -273.71664734 107.4811256 -288.50390625 116.2421875 C-289.37708496 116.75789307 -290.25026367 117.27359863 -291.14990234 117.80493164 C-292.80600808 118.78881204 -294.45640422 119.78238591 -296.10009766 120.78686523 C-297.2010376 121.44344116 -297.2010376 121.44344116 -298.32421875 122.11328125 C-298.96447998 122.50298096 -299.60474121 122.89268066 -300.2644043 123.29418945 C-302 124 -302 124 -305 123 C-304.28801202 120.61862744 -303.55634701 118.24642869 -302.8125 115.875 C-302.61591797 115.20984375 -302.41933594 114.5446875 -302.21679688 113.859375 C-299.78601636 106.23046385 -295.47873359 101.87872206 -288.5625 97.875 C-287.91692139 97.50084961 -287.27134277 97.12669922 -286.60620117 96.74121094 C-284.41213153 95.47955043 -282.20665805 94.23949643 -280 93 C-279.20916016 92.54850586 -278.41832031 92.09701172 -277.60351562 91.63183594 C-202.08902149 48.61163665 -112.62725153 20.4159299 0 0 Z " fill="#FFFFFF" transform="translate(429,41)"/>
<path d="M0 0 C-0.47315113 6.06985303 -1.79774729 10.50999684 -4.625 15.875 C-4.984729 16.57189941 -5.34445801 17.26879883 -5.71508789 17.98681641 C-12.35149367 30.59350404 -21.07187258 42.00457944 -33 50 C-33.66 49.67 -34.32 49.34 -35 49 C-34.68772461 48.48203857 -34.37544922 47.96407715 -34.05371094 47.43041992 C-32.60927961 45.02187612 -31.17966562 42.60483538 -29.75 40.1875 C-29.25886719 39.37345703 -28.76773438 38.55941406 -28.26171875 37.72070312 C-24.71970896 31.69928647 -22.17914112 25.63309684 -20 19 C-40.2241072 24.02139948 -60.27736499 29.22500164 -80 36 C-81.10859375 36.37737305 -82.2171875 36.75474609 -83.359375 37.14355469 C-124.05172948 51.0688251 -163.97089223 69.06449936 -201 91 C-202.25803778 86.86708404 -201.44804759 84.66594261 -199.875 80.625 C-199.45992187 79.52414063 -199.04484375 78.42328125 -198.6171875 77.2890625 C-194.8941963 69.71718185 -189.95162176 66.34480748 -182.8125 62.25 C-181.9253833 61.73123291 -181.0382666 61.21246582 -180.12426758 60.67797852 C-177.42343709 59.10568099 -174.71279799 57.55153537 -172 56 C-170.85096191 55.33363525 -170.85096191 55.33363525 -169.67871094 54.65380859 C-123.16573605 27.69955003 -55.0951585 -1.05367718 0 0 Z " fill="#FFFFFF" transform="translate(781,32)"/>
<path d="M0 0 C0.99 0.33 1.98 0.66 3 1 C3.94458008 3.40258789 3.94458008 3.40258789 4.76953125 6.72265625 C4.92672638 7.34471954 5.08392151 7.96678284 5.24588013 8.60769653 C5.7827889 10.75594707 6.29825287 12.9087185 6.8125 15.0625 C7.19661747 16.6351917 7.58081649 18.20786348 7.96508789 19.78051758 C16.44645558 54.84813823 23.85056408 90.21904587 31.16189575 125.54653931 C31.58941364 127.61049273 32.01925489 129.67396653 32.45162964 131.73690796 C35.41394212 145.9091118 38.10686906 159.27757513 35.6875 173.75 C35.55666016 174.61753906 35.42582031 175.48507813 35.29101562 176.37890625 C34.42216124 181.97819007 33.27925796 187.48075607 32 193 C31.34 193 30.68 193 30 193 C26.06107315 175.60387547 22.12277129 158.20760957 18.18517876 140.81118298 C16.35616155 132.73058363 14.52695299 124.6500277 12.69726562 116.56958008 C11.09929168 109.51244596 9.50170559 102.45522417 7.90455258 95.39790422 C7.06179011 91.67405917 6.21885574 87.95025327 5.37545395 84.22655296 C5.05237534 82.79997645 4.72929718 81.37339984 4.40621948 79.94682312 C4.24854611 79.25076853 4.09087273 78.55471394 3.92842138 77.83756679 C3.15801104 74.43512637 2.38934581 71.03230892 1.62454033 67.62860394 C0.17663087 61.18703914 -1.28789838 54.75017685 -2.79193115 48.32144165 C-3.07354536 47.10039639 -3.35515957 45.87935114 -3.64530754 44.62130451 C-4.16881131 42.35158997 -4.70033433 40.0837018 -5.24191475 37.81823254 C-7.82058561 26.53971759 -8.28158579 14.48644065 -2.91015625 3.83984375 C-1.8125 2.1875 -1.8125 2.1875 0 0 Z " fill="#FFFFFF" transform="translate(870,38)"/>
<path d="M0 0 C0.66 0 1.32 0 2 0 C6.60363791 17.46559049 10.99080024 34.96534056 15.0625 52.5625 C15.46462708 54.29413895 15.46462708 54.29413895 15.87487793 56.0607605 C20.7308373 77.01233346 25.29003323 98.02356387 29.75 119.0625 C29.90471394 119.79134022 30.05942787 120.52018044 30.21883011 121.27110672 C31.11198787 125.47932335 32.00195503 129.68819186 32.88688087 133.89814758 C33.28484404 135.79044942 33.68447223 137.68240085 34.08415222 139.57434082 C35.79532298 147.76058921 37.31418975 155.41093522 36.8125 163.8125 C36.74857056 164.89543335 36.74857056 164.89543335 36.68334961 166.00024414 C36.25917835 171.74909218 35.3007479 177.3111152 34.0625 182.9375 C33.89274658 183.71262939 33.72299316 184.48775879 33.5480957 185.28637695 C32.26522075 190.73477925 32.26522075 190.73477925 30 193 C28.54059968 188.81847845 27.39650944 184.66873468 26.43075562 180.34747314 C26.28612243 179.70420098 26.14148925 179.06092882 25.99247324 178.39816356 C25.51197812 176.25731798 25.03599762 174.11549549 24.56005859 171.97363281 C24.2151818 170.43228849 23.87005715 168.89099961 23.52470398 167.34976196 C22.58974759 163.17262189 21.65904411 158.99454601 20.72969389 154.81615543 C20.14828513 152.20244003 19.56617872 149.5888809 18.98387527 146.97536469 C17.16011213 138.78866602 15.33905734 130.60137156 13.52173078 122.41324162 C11.42773116 112.97873581 9.32471584 103.54629996 7.21387422 94.11554837 C5.58004804 86.81337627 3.9543813 79.50941729 2.33481276 72.20406985 C1.36856477 67.84650526 0.39892056 63.48976481 -0.57927322 59.13486481 C-1.49968423 55.03618652 -2.4098981 50.9353723 -3.31253624 46.8327446 C-3.64425151 45.3332136 -3.97953507 43.83446648 -4.31877708 42.33662033 C-7.27676867 29.25957913 -8.93343391 16.45283124 -2.98046875 3.83984375 C-1.9375 2.1875 -1.9375 2.1875 0 0 Z " fill="#FFFFFF" transform="translate(536,38)"/>
<path d="M0 0 C0.99 0.33 1.98 0.66 3 1 C4.02050781 3.78222656 4.02050781 3.78222656 4.953125 7.640625 C5.12991791 8.36067719 5.30671082 9.08072937 5.48886108 9.82260132 C6.09032652 12.29516334 6.67067962 14.77216147 7.25 17.25 C7.6773583 19.03960173 8.10493742 20.82915075 8.53271484 22.61865234 C17.3071391 59.64740942 25.14873768 96.92808022 32.875 134.1875 C33.03639465 134.95902405 33.19778931 135.7305481 33.36407471 136.52545166 C35.63110517 147.39551123 37.67217358 157.65232205 36.25 168.75 C36.15783203 169.51497803 36.06566406 170.27995605 35.97070312 171.06811523 C35.07865763 178.08277034 34.09101396 185.23556984 32 192 C31.34 192.33 30.68 192.66 30 193 C22.58980204 161.44518816 15.43388838 129.83638719 8.36273193 98.20404053 C6.22649736 88.64972285 4.08679556 79.09618077 1.94761467 69.54252243 C1.2120703 66.25638183 0.47723898 62.97008251 -0.25743103 59.68374634 C-0.48541413 58.66479467 -0.71339724 57.64584301 -0.94828892 56.59601402 C-1.38506258 54.64354636 -1.82133205 52.69096582 -2.25704098 50.73826027 C-3.14027717 46.78900059 -4.02953508 42.84240761 -4.97244263 38.90692139 C-5.24458588 37.76894104 -5.51672913 36.63096069 -5.79711914 35.45849609 C-6.02363663 34.53636322 -6.25015411 33.61423035 -6.48353577 32.66415405 C-8.41896529 22.68034089 -6.91931371 13.31983962 -3 4 C-1.36328125 1.62890625 -1.36328125 1.62890625 0 0 Z " fill="#FFFFFF" transform="translate(1093,38)"/>
<path d="M0 0 C-1.669887 14.50558557 -7.0384695 24.39675026 -18.2421875 33.90234375 C-28.26163223 41.34102241 -39.88405813 46.50936672 -51.625 50.5625 C-52.74358398 50.95804077 -52.74358398 50.95804077 -53.88476562 51.36157227 C-58.30060444 52.80632823 -61.37676403 53.21779244 -66 52 C-63.53812396 49.16511243 -60.95839558 47.91735895 -57.5625 46.375 C-47.54992358 41.48345181 -39.27647951 34.49712595 -31.15625 26.9453125 C-29.17929578 25.16175598 -27.15654039 23.55859056 -25 22 C-25.10613836 19.54775306 -25.10613836 19.54775306 -26 17 C-30.106782 14.73230823 -34.28203914 14.57865955 -38.875 14.5625 C-39.98524536 14.55778687 -39.98524536 14.55778687 -41.11791992 14.55297852 C-49.05497106 14.72120444 -55.6516077 17.15214784 -63 20 C-64.32584214 20.36198275 -65.65628495 20.7113501 -67 21 C-65.45706057 15.82130435 -63.24092624 11.20691563 -60.75 6.4375 C-60.38003906 5.69564453 -60.01007813 4.95378906 -59.62890625 4.18945312 C-56.58591075 -1.64208944 -53.34716956 -5.51236908 -47.1875 -8.25 C-31.25331327 -11.99922041 -12.99572298 -10.63286425 0 0 Z " fill="#FFFFFF" transform="translate(220,37)"/>
<path d="M0 0 C0.83402344 0.42410156 1.66804688 0.84820312 2.52734375 1.28515625 C4.81789543 2.69081104 6.39361245 3.84696117 8 6 C8.64556909 9.2654514 7.96074617 11.8534292 7 15 C6.76667969 15.80824219 6.53335938 16.61648437 6.29296875 17.44921875 C1.26544584 32.07265298 -11.07166333 41.19411577 -24.42016602 47.88183594 C-30.65571893 50.84029173 -37.09701897 53.21030647 -43.625 55.4375 C-44.38329102 55.69692383 -45.14158203 55.95634766 -45.92285156 56.22363281 C-49.72542091 57.46274887 -52.94645933 58.32844895 -57 58 C-57.33 57.34 -57.66 56.68 -58 56 C-56.91203125 55.45472656 -55.8240625 54.90945312 -54.703125 54.34765625 C-40.51617722 47.11731775 -25.34155857 38.2811296 -16 25 C-19.11876978 21.18817027 -23.12998936 20.21644807 -27.90234375 19.6640625 C-38.99435598 19.52130816 -48.55537327 22.45998911 -59 26 C-55.92793039 15.93043849 -50.63604809 3.36890519 -41 -2 C-28.83339483 -6.5238773 -11.49134811 -5.92090328 0 0 Z " fill="#FFFFFF" transform="translate(2284,82)"/>
<path d="M0 0 C6.45360258 4.88169635 12.180273 9.83306522 14 18 C14.40476559 23.87457079 12.33384528 28.27705252 9 33 C5.1053964 36.5509621 1.22825761 36.29346191 -3.79296875 36.203125 C-6 36 -6 36 -8 35 C-8.26941406 35.73605469 -8.53882813 36.47210938 -8.81640625 37.23046875 C-14.63095469 50.83612829 -28.94986709 58.59322852 -42 64 C-53.87887779 68.5389879 -66.21494244 71.50137481 -79 71 C-79.33 70.01 -79.66 69.02 -80 68 C-78.91847656 67.63390625 -77.83695313 67.2678125 -76.72265625 66.890625 C-56.00800418 59.67656707 -33.67298441 50.66276643 -17 36 C-16.67 35.01 -16.34 34.02 -16 33 C-16.763125 32.731875 -17.52625 32.46375 -18.3125 32.1875 C-20.91752101 31.0364442 -22.24363005 30.19546244 -24 28 C-26.71157415 19.86527755 -23.63419235 12.82025853 -21 5 C-21.66 5 -22.32 5 -23 5 C-23.125 2.125 -23.125 2.125 -23 -1 C-16.87612577 -7.12387423 -6.34815327 -4.36508876 0 0 Z M-13 11 C-14.69088222 12.97956942 -16.35830472 14.97945196 -18 17 C-16.68798827 18.56249809 -16.68798827 18.56249809 -15 20 C-14.01 20 -13.02 20 -12 20 C-12 17.03 -12 14.06 -12 11 C-12.33 11 -12.66 11 -13 11 Z M-4 14 C-4.67673447 17.40320934 -4.67673447 17.40320934 -5 21 C-2.50494038 23.49505962 -1.32671112 23.35948376 2.125 23.625 C3.03507813 23.69976562 3.94515625 23.77453125 4.8828125 23.8515625 C5.58148437 23.90054688 6.28015625 23.94953125 7 24 C5.03897918 19.45868862 3.17675712 16.71489213 -1 14 C-1.99 14 -2.98 14 -4 14 Z " fill="#FFFFFF" transform="translate(986,85)"/>
<path d="M0 0 C2.22759728 5.88202158 -0.91114753 12.42972676 -3 18 C-5.44128067 22.27224117 -7.90395807 25.26930538 -12 28 C-17.14894239 28.33218983 -20.24174807 27.98260497 -25 26 C-28.43416368 26.46601386 -30.56055822 27.96659364 -33.3125 30 C-37.29211946 32.68121181 -40.05642117 34.26483458 -45 34 C-47.29920034 32.819104 -49.39188068 31.53254813 -51.49609375 30.03125 C-56.30030536 28.05260434 -60.85325337 29.5979433 -65.54296875 31.2421875 C-79.79192262 37.62596319 -93.58125634 44.86120168 -107.125 52.625 C-119.24587772 59.52400947 -131.72581192 65.39595964 -144.875 70.0625 C-146.13231934 70.51133545 -146.13231934 70.51133545 -147.41503906 70.96923828 C-151.3765482 72.32185001 -154.75198452 73.40416342 -159 73 C-159 71.68 -159 70.36 -159 69 C-158.07703125 68.68289063 -157.1540625 68.36578125 -156.203125 68.0390625 C-133.80258859 60.12080123 -113.78726662 48.02345863 -94.1875 34.75 C-61.87328168 12.89452637 -61.87328168 12.89452637 -47 15 C-44.86609096 15.93530452 -42.93165371 16.98799758 -40.95703125 18.22265625 C-38.21862224 19.31036761 -36.78133781 18.9172497 -34 18 C-31.41658648 16.25588881 -29.02869485 14.34789159 -26.59765625 12.3984375 C-23.25273775 10.59771446 -21.61354559 11.06857327 -18 12 C-16 12.33333333 -14 12.66666667 -12 13 C-11.68546875 12.38511719 -11.3709375 11.77023437 -11.046875 11.13671875 C-10.61890625 10.32847656 -10.1909375 9.52023437 -9.75 8.6875 C-9.33234375 7.88699219 -8.9146875 7.08648437 -8.484375 6.26171875 C-6.19937187 2.78009556 -3.92138572 1.30712857 0 0 Z " fill="#FFFFFF" transform="translate(2245,249)"/>
<path d="M0 0 C0.76183594 -0.00515625 1.52367187 -0.0103125 2.30859375 -0.015625 C4.87612335 0.28696081 6.41461207 0.80895417 8.5625 2.25 C11.80454671 6.95252142 11.2282956 12.81044992 10.5625 18.25 C9.32525559 21.87131923 7.85324306 25.17201567 5.5625 28.25 C4.5725 28.58 3.5825 28.91 2.5625 29.25 C2.0675 25.29 2.0675 25.29 1.5625 21.25 C-0.51303648 20.6965236 -2.28115964 20.25 -4.4375 20.25 C-4.92801977 22.01772219 -5.40413674 23.78944073 -5.875 25.5625 C-6.14183594 26.54863281 -6.40867188 27.53476563 -6.68359375 28.55078125 C-8.71763632 38.53129063 -8.70246867 48.78864577 -9 58.9375 C-9.04332087 60.33269161 -9.08693878 61.72787402 -9.13085938 63.12304688 C-9.23598102 66.4986196 -9.33812877 69.87425393 -9.4375 73.25 C-10.0975 73.25 -10.7575 73.25 -11.4375 73.25 C-11.76621094 72.12464844 -11.76621094 72.12464844 -12.1015625 70.9765625 C-14.99332807 61.64297768 -18.69183093 52.60542077 -26.4375 46.25 C-29.10283035 44.930982 -29.10283035 44.930982 -31.4375 44.25 C-31.89125 45.19875 -32.345 46.1475 -32.8125 47.125 C-35.24850917 51.80963303 -35.24850917 51.80963303 -38.125 52.875 C-42.48931065 53.58272605 -46.10383827 53.85620988 -50.1875 52 C-53.55649357 49.37967167 -55.23879584 47.5316418 -55.90625 43.2265625 C-56.00103992 33.06034372 -56.00103992 33.06034372 -53.1875 29.5 C-47.98253876 25.24139535 -41.91670273 25.78342698 -35.4375 26.25 C-28.40925105 27.47769092 -23.09147751 30.86852707 -18.4375 36.25 C-17.00898342 38.54211128 -15.72551052 40.87300928 -14.4375 43.25 C-14.41768066 42.50951416 -14.39786133 41.76902832 -14.37744141 41.00610352 C-14.28140394 37.60791589 -14.17204684 34.2102779 -14.0625 30.8125 C-14.0315625 29.64783203 -14.000625 28.48316406 -13.96875 27.28320312 C-13.37178186 9.62289564 -13.37178186 9.62289564 -7.4375 2.25 C-4.32763793 0.17675862 -3.54641613 -0.02392186 0 0 Z " fill="#FFFFFF" transform="translate(87.4375,101.75)"/>
<path d="M0 0 C3.14258334 1.98816497 4.46673624 3.41607967 5.65625 6.94921875 C7.07182173 14.53069428 4.17764156 21.73353766 0 28 C-0.99 28 -1.98 28 -3 28 C-3.495 24.535 -3.495 24.535 -4 21 C-5.32 20.67 -6.64 20.34 -8 20 C-10.93469348 24.59343328 -12.06405408 28.08605461 -12.29711914 33.49316406 C-12.33708511 34.37377502 -12.37705109 35.25438599 -12.41822815 36.16168213 C-12.47610756 37.57438385 -12.47610756 37.57438385 -12.53515625 39.015625 C-12.57813339 39.98659119 -12.62111053 40.95755737 -12.66539001 41.95794678 C-12.80159681 45.0551445 -12.93211905 48.15255209 -13.0625 51.25 C-13.15392224 53.35157883 -13.24571469 55.45314159 -13.33789062 57.5546875 C-13.56288789 62.70294847 -13.78278772 67.85140493 -14 73 C-14.99 73 -15.98 73 -17 73 C-17.21914062 72.17757812 -17.43828125 71.35515625 -17.6640625 70.5078125 C-20.55157506 60.34282924 -24.00437989 51.12467752 -33 45 C-35.7124618 43.6950516 -35.7124618 43.6950516 -38 43 C-38.04125 43.928125 -38.0825 44.85625 -38.125 45.8125 C-39 49 -39 49 -41.5625 50.875 C-46.66025302 52.54335553 -50.80008185 52.95648615 -55.875 50.75 C-58.96247306 48.20737513 -59.86595836 46.13311941 -60.3359375 42.16015625 C-60.44114828 33.81694126 -60.44114828 33.81694126 -58.3125 29.875 C-53.51755401 25.98720596 -48.91037703 25.56228994 -42.91796875 25.68359375 C-35.5834466 26.47890338 -29.73166127 29.29417317 -25 35 C-24.2575 35.886875 -23.515 36.77375 -22.75 37.6875 C-21 40 -21 40 -20 42 C-19.98018066 41.35562988 -19.96036133 40.71125977 -19.93994141 40.04736328 C-19.84354411 37.07289417 -19.73433899 34.09902043 -19.625 31.125 C-19.5940625 30.11179687 -19.563125 29.09859375 -19.53125 28.0546875 C-19.16695559 18.58303295 -18.47116601 9.95805965 -13 2 C-8.74548345 -0.83634436 -4.99177329 -0.74836793 0 0 Z " fill="#FFFFFF" transform="translate(1193,82)"/>
<path d="M0 0 C4.59435942 0.4424198 8.29922771 2.52051854 12.25 4.75 C12.88679688 5.08515625 13.52359375 5.4203125 14.1796875 5.765625 C16.94357801 7.31810818 18.73878394 8.40561025 20.03515625 11.35546875 C19.99065268 14.70312628 19.23042452 17.38213302 18.1875 20.5625 C17.83042969 21.67753906 17.47335937 22.79257812 17.10546875 23.94140625 C16.20969165 26.41982841 15.24992716 28.68678639 14 31 C6.57019766 31.57152326 0.9855615 29.54020418 -6 27 C-8.31 30.96 -10.62 34.92 -13 39 C-20.98413112 37.69112605 -28.96634851 35.03365149 -34.8203125 29.1796875 C-36.43283154 26.2002649 -36.39983016 24.35690742 -36 21 C-34.6875 17.7890625 -34.6875 17.7890625 -33 14.625 C-32.443125 13.56539063 -31.88625 12.50578125 -31.3125 11.4140625 C-30.879375 10.61742187 -30.44625 9.82078125 -30 9 C-24.00460935 8.71450521 -19.54759232 9.17512555 -13.9453125 11.34375 C-11.8684028 12.15982527 -11.8684028 12.15982527 -9 12 C-6.88506836 9.58108133 -6.88506836 9.58108133 -4.875 6.5625 C-3.81925781 5.04849609 -3.81925781 5.04849609 -2.7421875 3.50390625 C-2.16726563 2.67761719 -1.59234375 1.85132813 -1 1 C-0.67 0.67 -0.34 0.34 0 0 Z " fill="#FFFFFF" transform="translate(319,258)"/>
<path d="M0 0 C3.36857294 10.31625462 3.84251196 23.06615136 -1 33 C-3.63129 36.22333025 -5.07015392 37.69005131 -9 39 C-15.1056733 39.59859542 -18.86369785 37.98839398 -24 35 C-24.26554687 35.59167969 -24.53109375 36.18335938 -24.8046875 36.79296875 C-26.77407248 40.42925148 -29.41109941 42.95019908 -33 45 C-37.01833536 45.57618589 -40.08397482 44.67496592 -43.375 42.25 C-47.15191123 37.02043061 -47.55766875 32.29522226 -47 26 C-46.48557826 23.57423539 -45.8013416 21.35394095 -45 19 C-43.68 18.67 -42.36 18.34 -41 18 C-40.54625 19.134375 -40.0925 20.26875 -39.625 21.4375 C-38.42904194 25.04721692 -38.42904194 25.04721692 -36 26 C-34.62657169 26.0689472 -33.24997898 26.08467708 -31.875 26.0625 C-29.956875 26.0315625 -29.956875 26.0315625 -28 26 C-27.84144531 25.04738281 -27.68289063 24.09476563 -27.51953125 23.11328125 C-27.28621094 21.85902344 -27.05289062 20.60476562 -26.8125 19.3125 C-26.59207031 18.07113281 -26.37164063 16.82976562 -26.14453125 15.55078125 C-24.84402863 11.51611614 -23.18541082 9.72662825 -20 7 C-19.87882812 7.62648438 -19.75765625 8.25296875 -19.6328125 8.8984375 C-19.46523437 9.71570313 -19.29765625 10.53296875 -19.125 11.375 C-18.88136719 12.59316406 -18.88136719 12.59316406 -18.6328125 13.8359375 C-18.13341068 16.18673923 -18.13341068 16.18673923 -16 18 C-12.91652174 18.16681109 -12.91652174 18.16681109 -10 18 C-7.57848075 13.70730678 -6.42169152 9.85582695 -5.625 5.05078125 C-4.69501343 1.99926282 -3.32386969 0 0 0 Z " fill="#FFFFFF" transform="translate(1059,78)"/>
<path d="M0 0 C2.76659502 4.77184291 2.33020849 9.36661889 2.3125 14.75 C2.32861328 15.71421875 2.34472656 16.6784375 2.36132812 17.671875 C2.36616965 24.7986047 1.46085261 30.44543512 -2.6875 36.4375 C-6.61132967 39.08873626 -10.6670095 39.37655285 -15.2265625 38.640625 C-17.94059262 37.98925777 -20.49843592 37.25078204 -23 36 C-23.226875 36.556875 -23.45375 37.11375 -23.6875 37.6875 C-25.48414821 40.85302304 -27.08905248 42.77033807 -30 45 C-34.53932538 45.96388579 -37.91267618 45.62463283 -41.9375 43.3125 C-45.59857694 39.20765615 -46.27760331 35.41024857 -46.25 30 C-46.25515625 28.989375 -46.2603125 27.97875 -46.265625 26.9375 C-45.98627914 23.84826347 -45.52566086 21.70370279 -44 19 C-42.68 18.67 -41.36 18.34 -40 18 C-39.01 20.64 -38.02 23.28 -37 26 C-33.64541845 26.76522801 -33.64541845 26.76522801 -30 27 C-27.53016097 25.33388531 -27.03002978 24.1078342 -26.2265625 21.22265625 C-26.02804687 20.17980469 -25.82953125 19.13695312 -25.625 18.0625 C-24.33066486 12.33835474 -24.33066486 12.33835474 -21.3125 9.25 C-20.549375 8.8375 -19.78625 8.425 -19 8 C-18.34 11.3 -17.68 14.6 -17 18 C-14.14921909 18.76716851 -14.14921909 18.76716851 -11 19 C-6.74916581 16.10648663 -6.37592219 10.70484373 -5.16015625 6.03125 C-3.91586916 2.78018339 -2.95632455 1.72812291 0 0 Z " fill="#FFFFFF" transform="translate(467,91)"/>
<path d="M0 0 C2.38017951 9.770253 2.51519839 22.84164213 -2 32 C-4.10727729 35.03695844 -5.51463502 36.55606573 -9.078125 37.62109375 C-14.59420808 38.53105984 -18.1124199 37.59977665 -23 35 C-23.721875 35.928125 -24.44375 36.85625 -25.1875 37.8125 C-28.31937209 41.53379746 -31.00872726 43.70342746 -35.9375 44.4375 C-39.92683357 43.8675952 -41.95721749 42.62785762 -45 40 C-47.99333345 34.28545432 -47.78969755 27.15879021 -46.25 21 C-44.78416047 18.65465675 -43.5691997 17.94203989 -41 17 C-40.79375 18.11375 -40.5875 19.2275 -40.375 20.375 C-39.38173929 24.19263778 -39.38173929 24.19263778 -36.1875 25.5 C-33.01924674 25.9969809 -31.07636796 25.71033284 -28 25 C-27.76216797 23.55367187 -27.76216797 23.55367187 -27.51953125 22.078125 C-27.28621094 20.81484375 -27.05289063 19.5515625 -26.8125 18.25 C-26.59207031 16.99703125 -26.37164063 15.7440625 -26.14453125 14.453125 C-24.83286461 10.49574168 -23.44569577 9.2332169 -20 7 C-19.01 10.63 -18.02 14.26 -17 18 C-13.58863524 18.0615942 -13.58863524 18.0615942 -10 17 C-8.54058419 14.49814432 -7.78713196 12.71736 -7 10 C-6.48476468 8.37321639 -5.96387727 6.74821266 -5.4375 5.125 C-5.20933594 4.36445312 -4.98117187 3.60390625 -4.74609375 2.8203125 C-3.70318059 0.2758228 -2.68845788 0 0 0 Z " fill="#FFFFFF" transform="translate(811,84)"/>
<path d="M0 0 C0.99 0 1.98 0 3 0 C2.2014165 7.83961548 -0.29614162 15.23200063 -2.56054688 22.75195312 C-4.28265123 28.67413809 -5.62858106 33.82256543 -5 40 C-4.34 40.66 -3.68 41.32 -3 42 C-1.02 42 0.96 42 3 42 C3.33 37.38 3.66 32.76 4 28 C4.99 28 5.98 28 7 28 C11.67003356 36.25595219 11.92554637 43.69914352 10.3125 52.9375 C8.53706945 57.08017128 6.0637556 59.9681222 2 62 C-3.58393133 62.5099099 -8.44052088 62.73870063 -13.5625 60.3125 C-17.24795486 56.81604282 -18.8353032 54.32992665 -19.46875 49.21484375 C-19.49512512 47.78926842 -19.50514269 46.36331003 -19.5 44.9375 C-19.52835938 44.24978516 -19.55671875 43.56207031 -19.5859375 42.85351562 C-19.62805732 31.32321528 -12.51837594 20.87344108 -6.875 11.25 C-6.25496094 10.15945313 -5.63492188 9.06890625 -4.99609375 7.9453125 C-4.39667969 6.91664063 -3.79726563 5.88796875 -3.1796875 4.828125 C-2.64069824 3.8990332 -2.10170898 2.96994141 -1.54638672 2.01269531 C-1.0360791 1.34850586 -0.52577148 0.68431641 0 0 Z " fill="#FFFFFF" transform="translate(893,260)"/>
<path d="M0 0 C0.99 0.495 0.99 0.495 2 1 C0.06605617 8.99363449 -3.28480575 15.05600295 -10 20 C-15.47128272 23.30506889 -21.22221064 26.08504954 -26.94140625 28.9296875 C-35.94363286 33.42153192 -44.46441817 38.68798949 -53 44 C-53.84675293 44.5269043 -54.69350586 45.05380859 -55.56591797 45.59667969 C-64.1287464 50.94097094 -72.62172777 56.37009698 -81 62 C-81.66 61.67 -82.32 61.34 -83 61 C-76.90132621 46.95545795 -67.62178445 39.8285534 -55 32 C-54.30583984 31.56429688 -53.61167969 31.12859375 -52.89648438 30.6796875 C-41.62137481 23.61078288 -30.10642859 16.97388495 -18.52001953 10.43115234 C-16.06595554 9.03745702 -13.6234753 7.62537942 -11.18359375 6.20703125 C-9.72657646 5.36716327 -8.269546 4.52731815 -6.8125 3.6875 C-5.81452393 3.1004126 -5.81452393 3.1004126 -4.79638672 2.50146484 C-3.2312355 1.60608367 -1.61916595 0.79354104 0 0 Z " fill="#FFFFFF" transform="translate(1009,268)"/>
<path d="M0 0 C-0.53196214 7.09282856 -3.9116571 12.23287816 -9.07421875 16.91796875 C-13.26270108 20.40655088 -17.86379276 22.81715998 -22.6875 25.3125 C-31.69445219 30.10020778 -40.48313754 35.1883031 -49.1875 40.5 C-49.77959259 40.86089722 -50.37168518 41.22179443 -50.98171997 41.59362793 C-59.55090678 46.82399349 -68.06875742 52.13615158 -76.49291992 57.59765625 C-81.7879382 61 -81.7879382 61 -84 61 C-75.80293957 33.60982246 -35.81536306 18.64385938 -13 6 C-11.49276367 5.15501953 -11.49276367 5.15501953 -9.95507812 4.29296875 C-8.96443359 3.74253906 -7.97378906 3.19210937 -6.953125 2.625 C-6.05239258 2.12226563 -5.15166016 1.61953125 -4.22363281 1.1015625 C-2 0 -2 0 0 0 Z " fill="#FFFFFF" transform="translate(726,260)"/>
<path d="M0 0 C1.09852568 3.73528275 0.78807632 5.33563898 -0.9375 8.875 C-1.31777344 9.69742187 -1.69804687 10.51984375 -2.08984375 11.3671875 C-7.13346314 18.31892466 -15.30553619 21.94075974 -22.75 25.8125 C-32.1573668 30.80830342 -41.34663494 36.0810909 -50.4375 41.625 C-51.02936096 41.98573608 -51.62122192 42.34647217 -52.23101807 42.71813965 C-60.31340358 47.65489258 -68.33195586 52.68777696 -76.20483398 57.95361328 C-80.79604521 61 -80.79604521 61 -83 61 C-81.72027576 56.62064218 -80.09780363 53.26542768 -77.4375 49.5625 C-76.81746094 48.67691406 -76.19742188 47.79132813 -75.55859375 46.87890625 C-69.48485094 40.04478648 -61.55444058 35.22281733 -53.875 30.375 C-52.92778076 29.77526367 -51.98056152 29.17552734 -51.00463867 28.55761719 C-34.48046328 18.19451516 -17.31962095 8.95284957 0 0 Z " fill="#FFFFFF" transform="translate(2343,248)"/>
<path d="M0 0 C-0.49540846 1.52930437 -1.02311097 3.04814837 -1.5625 4.5625 C-1.85253906 5.40941406 -2.14257812 6.25632812 -2.44140625 7.12890625 C-7.01927135 15.56181565 -14.71218884 19.35163394 -23 23.5625 C-25.33742605 24.78544737 -27.67253574 26.01174557 -30.00390625 27.24609375 C-30.88569298 27.71190857 -30.88569298 27.71190857 -31.78529358 28.18713379 C-41.45812537 33.33147816 -50.72136617 39.18443628 -60 45 C-60.92119629 45.5765332 -61.84239258 46.15306641 -62.79150391 46.74707031 C-72.45352338 52.78375852 -72.45352338 52.78375852 -82 59 C-82.99 58.67 -83.98 58.34 -85 58 C-77.04107232 44.83994937 -68.97729693 37.03411091 -56 29 C-55.24493164 28.53045898 -54.48986328 28.06091797 -53.71191406 27.57714844 C-41.597011 20.08365234 -29.20433296 13.13268843 -16.63623047 6.43066406 C-14.74665525 5.40520465 -12.87219566 4.35170118 -11.00830078 3.28027344 C-10.02716309 2.72114258 -9.04602539 2.16201172 -8.03515625 1.5859375 C-7.14320557 1.06821777 -6.25125488 0.55049805 -5.33227539 0.01708984 C-3 -1 -3 -1 0 0 Z " fill="#FFFFFF" transform="translate(1208,273)"/>
<path d="M0 0 C-1.03760322 8.30082579 -5.12265479 13.60898288 -11.29296875 18.95043945 C-16.07553227 22.57143699 -21.37330004 25.07022376 -26.75 27.6875 C-29.16876578 28.89715144 -31.5797839 30.1216077 -33.98828125 31.3515625 C-34.58697525 31.65697464 -35.18566925 31.96238678 -35.80250549 32.27705383 C-46.88017306 37.97901581 -57.25506309 44.89349812 -67.671875 51.703125 C-68.59621338 52.30697021 -69.52055176 52.91081543 -70.47290039 53.53295898 C-72.24680685 54.69583372 -74.01700749 55.8643866 -75.78295898 57.03930664 C-76.57001221 57.55871826 -77.35706543 58.07812988 -78.16796875 58.61328125 C-78.86172607 59.07516846 -79.5554834 59.53705566 -80.27026367 60.01293945 C-82 61 -82 61 -84 61 C-75.66414281 32.81489871 -31.47820355 15.95566008 -7.84375 3.0546875 C-6.77318359 2.46929199 -5.70261719 1.88389648 -4.59960938 1.28076172 C-2 0 -2 0 0 0 Z " fill="#FFFFFF" transform="translate(120,278)"/>
<path d="M0 0 C0.99 0 1.98 0 3 0 C1.45069672 8.39071257 -0.69044449 16.56558311 -2.96484375 24.78515625 C-4.92893469 31.78714326 -4.92893469 31.78714326 -5 39 C-4.34 39.99 -3.68 40.98 -3 42 C-0.02934491 41.65772428 -0.02934491 41.65772428 3 41 C4.38226016 38.23547967 4.09525387 35.9538637 4.0625 32.875 C4.05347656 31.77929688 4.04445313 30.68359375 4.03515625 29.5546875 C4.02355469 28.71164063 4.01195312 27.86859375 4 27 C9.10834177 31.67561034 10.63443796 36.64901464 11.375 43.4375 C10.76043562 49.27586162 9.66173269 54.87090499 6 59.5625 C1.27071114 62.96167636 -4.42241493 62.56653582 -10 62 C-15.09479096 59.63456134 -16.86245566 57.09113126 -19 52 C-21.53652493 33.1245983 -10.97594324 17.27190737 -1.54296875 1.87890625 C-1.03378906 1.25886719 -0.52460937 0.63882812 0 0 Z " fill="#FFFFFF" transform="translate(935,18)"/>
<path d="M0 0 C0.99 0 1.98 0 3 0 C2.41992549 2.3758371 1.83635124 4.75070943 1.25 7.125 C1.07243164 7.84840576 0.89486328 8.57181152 0.71191406 9.31713867 C-0.46185012 14.03540251 -1.80664262 18.66798215 -3.25 23.3125 C-5.01982182 29.33404222 -5.4586698 34.75699432 -5 41 C-2.36 41 0.28 41 3 41 C3.04898438 40.07316406 3.09796875 39.14632812 3.1484375 38.19140625 C3.22320312 36.99386719 3.29796875 35.79632813 3.375 34.5625 C3.44460937 33.36753906 3.51421875 32.17257813 3.5859375 30.94140625 C3.72257812 29.97074219 3.85921875 29.00007813 4 28 C4.66 27.67 5.32 27.34 6 27 C10.07941435 35.55948546 11.47914611 42.66224711 8.75 51.875 C7.15961345 56.14115539 5.14310328 58.92844836 1 61 C-4.48841036 61.50118717 -9.41307331 61.64033884 -14.5625 59.5625 C-18.72111393 55.19062382 -19.87352493 50.96258272 -20.12890625 44.98046875 C-19.51731401 29.65359649 -10.9172635 10.9172635 0 0 Z " fill="#FFFFFF" transform="translate(223,136)"/>
<path d="M0 0 C0.99 0 1.98 0 3 0 C2.44091871 2.29254561 1.87804598 4.58404596 1.3125 6.875 C1.13823486 7.58591797 0.96396973 8.29683594 0.78442383 9.02929688 C-0.1971165 12.97779519 -1.24529775 16.89158983 -2.4140625 20.7890625 C-2.76271362 21.96879639 -2.76271362 21.96879639 -3.1184082 23.17236328 C-3.57025815 24.68764198 -4.03434305 26.1993434 -4.51245117 27.70654297 C-6.0411674 32.87548151 -5.97430175 36.69214753 -5 42 C-2.08347826 42.16681109 -2.08347826 42.16681109 1 42 C3.68092691 39.31907309 3.38670257 37.60832637 3.625 33.875 C3.69976563 32.77929688 3.77453125 31.68359375 3.8515625 30.5546875 C3.90054688 29.71164063 3.94953125 28.86859375 4 28 C8.02218625 31.6841874 9.6590279 36.13128804 10.29296875 41.46484375 C10.51439757 48.30804885 9.40102762 54.07374759 5 59.4375 C0.58966731 62.88307241 -4.66236785 62.46558785 -10 62 C-14.20362508 60.47140906 -16.7542389 58.90053244 -19 55 C-22.77299983 42.61818367 -18.02601195 30.35300655 -12.25 19.4375 C-4.61316439 5.49283653 -4.61316439 5.49283653 0 0 Z " fill="#FFFFFF" transform="translate(596,26)"/>
<path d="M0 0 C3.6875 1.3125 3.6875 1.3125 6 3 C6.33 3.99 6.66 4.98 7 6 C5.62890625 8.34765625 5.62890625 8.34765625 3.5625 11.0625 C2.8303125 12.03445312 2.098125 13.00640625 1.34375 14.0078125 C-1.51832554 17.66172894 -4.44445552 21.25789531 -7.43359375 24.80859375 C-8.99397373 26.99156924 -9.78645666 28.33344602 -10 31 C-8.38919296 34.14710616 -8.38919296 34.14710616 -5.9609375 34.50390625 C1.30647449 34.66857571 7.00091441 32.84144119 13.60400391 30.04711914 C18.72069494 27.90689831 18.72069494 27.90689831 22 29 C15.11936721 38.32214765 6.20952615 42.54444786 -5 45 C-9.47182203 45.58528259 -12.76698064 45.52468909 -16.9375 43.75 C-19.23902075 41.79719452 -20.21169467 40.91672972 -21 38 C-21.28207151 29.96096195 -17.08632717 24.92941601 -12 19 C-10.06907473 17.12169953 -8.18571271 15.58464171 -6 14 C-9.63195496 11.57869669 -11.38349348 11.78977215 -15.6875 11.875 C-16.86699219 11.89304688 -18.04648437 11.91109375 -19.26171875 11.9296875 C-20.61716797 11.96449219 -20.61716797 11.96449219 -22 12 C-20.34867519 6.26005848 -18.7104783 4.43472376 -14 1 C-9.84084461 -1.07957769 -4.54088436 -0.33745816 0 0 Z " fill="#FFFFFF" transform="translate(418,227)"/>
<path d="M0 0 C2.375 1.6875 2.375 1.6875 3.375 4.6875 C2.4765625 6.30859375 2.4765625 6.30859375 1 8.125 C0.45214844 8.82238281 -0.09570312 9.51976562 -0.66015625 10.23828125 C-1.63275391 11.45064453 -1.63275391 11.45064453 -2.625 12.6875 C-4.2414866 14.71942632 -5.84517454 16.76158481 -7.4375 18.8125 C-8.20707031 19.78445312 -8.97664062 20.75640625 -9.76953125 21.7578125 C-12.07237995 25.3938894 -12.625 28.43201927 -12.625 32.6875 C-3.07149761 33.58127881 4.54641038 30.95734801 13.375 27.6875 C15.37249768 27.01337281 17.37165092 26.344034 19.375 25.6875 C17.03757407 33.17496876 9.8183509 36.52237174 3.1875 40 C-4.38775507 43.52302282 -12.53203878 45.4912571 -20.625 42.625 C-23.50475283 39.83523944 -24.03389019 37.62823209 -24.625 33.6875 C-23.92148264 26.23021596 -18.67428352 21.84125145 -13.625 16.6875 C-13.06296875 16.11 -12.5009375 15.5325 -11.921875 14.9375 C-10.83695419 13.84010884 -9.7339129 12.76064152 -8.625 11.6875 C-11.62813748 10.18593126 -14.41567522 10.59468796 -17.75 10.625 C-19.03132812 10.63402344 -20.31265625 10.64304688 -21.6328125 10.65234375 C-22.62023437 10.66394531 -23.60765625 10.67554688 -24.625 10.6875 C-23.8842182 5.82764578 -22.38306717 3.92118571 -18.625 0.6875 C-12.99433569 -2.77013608 -6.01425578 -2.17757537 0 0 Z " fill="#FFFFFF" transform="translate(768.625,222.3125)"/>
<path d="M0 0 C11.5662565 5.38932224 16.84057236 19.69104262 21.09765625 30.88671875 C25.71981431 45.95710387 23.92976397 64.21070808 19 79 C18.34 79 17.68 79 17 79 C16.93006836 78.31599121 16.86013672 77.63198242 16.78808594 76.92724609 C15.19813758 50.90749795 15.19813758 50.90749795 3.49462891 28.5793457 C0.77997099 25.94303347 -0.84039031 24.10840066 -1.39111328 20.28393555 C-1.36636016 17.18146069 -1.16641754 14.15114246 -0.875 11.0625 C-0.80023437 9.99708984 -0.72546875 8.93167969 -0.6484375 7.83398438 C-0.46082147 5.2190859 -0.24403318 2.61013553 0 0 Z " fill="#FFFFFF" transform="translate(1018,0)"/>
<path d="M0 0 C11.70526899 9.25188136 19.50409848 23.25874796 22 38 C22.77204435 51.9704935 23.25260216 66.5334265 19 80 C18.01 80 17.02 80 16 80 C15.96036133 79.38705078 15.92072266 78.77410156 15.87988281 78.14257812 C14.67251522 50.46162679 14.67251522 50.46162679 1.828125 26.9375 C-1.14324546 22.1629902 -0.41693133 17.18018288 -0.25 11.6875 C-0.22292969 10.00430664 -0.22292969 10.00430664 -0.1953125 8.28710938 C-0.14827856 5.52386553 -0.08256317 2.76237302 0 0 Z " fill="#FFFFFF" transform="translate(624,115)"/>
<path d="M0 0 C3.15204981 1.39347376 5.26171773 3.02485079 7.671875 5.4765625 C8.66767578 6.48203125 8.66767578 6.48203125 9.68359375 7.5078125 C10.36550781 8.20648438 11.04742188 8.90515625 11.75 9.625 C12.44738281 10.33140625 13.14476563 11.0378125 13.86328125 11.765625 C15.58012488 13.50598703 17.29211832 15.25084981 19 17 C17.6415798 20.04332765 16.11536976 22.12309151 13.7421875 24.453125 C13.11699219 25.071875 12.49179688 25.690625 11.84765625 26.328125 C11.19667969 26.96234375 10.54570312 27.5965625 9.875 28.25 C9.21628906 28.8996875 8.55757812 29.549375 7.87890625 30.21875 C6.25703357 31.81711727 4.6306719 33.41061897 3 35 C-0.15204981 33.60652624 -2.26171773 31.97514921 -4.671875 29.5234375 C-5.33574219 28.853125 -5.99960938 28.1828125 -6.68359375 27.4921875 C-7.36550781 26.79351562 -8.04742188 26.09484375 -8.75 25.375 C-9.44738281 24.66859375 -10.14476563 23.9621875 -10.86328125 23.234375 C-12.58012488 21.49401297 -14.29211832 19.74915019 -16 18 C-14.6415798 14.95667235 -13.11536976 12.87690849 -10.7421875 10.546875 C-10.11699219 9.928125 -9.49179688 9.309375 -8.84765625 8.671875 C-8.19667969 8.03765625 -7.54570312 7.4034375 -6.875 6.75 C-6.21628906 6.1003125 -5.55757812 5.450625 -4.87890625 4.78125 C-3.25703357 3.18288273 -1.6306719 1.58938103 0 0 Z " fill="#FFFFFF" transform="translate(2373,217)"/>
<path d="M0 0 C2.45863296 1.05500821 3.8370938 2.33594089 5.70361328 4.25073242 C6.69941406 5.26103516 6.69941406 5.26103516 7.71533203 6.29174805 C8.39724609 6.99879883 9.07916016 7.70584961 9.78173828 8.43432617 C10.47912109 9.14524414 11.17650391 9.85616211 11.89501953 10.58862305 C13.61420408 12.34313331 15.325997 14.1042597 17.03173828 15.87182617 C15.63826452 19.02387599 14.00688749 21.1335439 11.55517578 23.54370117 C10.88486328 24.20756836 10.21455078 24.87143555 9.52392578 25.55541992 C8.82525391 26.23733398 8.12658203 26.91924805 7.40673828 27.62182617 C6.70033203 28.31920898 5.99392578 29.0165918 5.26611328 29.73510742 C3.52575125 31.45195105 1.78088847 33.1639445 0.03173828 34.87182617 C-3.14214304 32.43163317 -5.89487265 29.99932966 -8.46826172 26.93432617 C-11.18002029 23.75972916 -13.97179061 20.77749512 -16.96826172 17.87182617 C-15.47327081 12.72672757 -12.28933788 9.67662006 -8.59326172 5.99682617 C-8.01576172 5.3909668 -7.43826172 4.78510742 -6.84326172 4.16088867 C-6.27865234 3.59370117 -5.71404297 3.02651367 -5.13232422 2.44213867 C-4.62137207 1.92409668 -4.11041992 1.40605469 -3.58398438 0.87231445 C-1.96826172 -0.12817383 -1.96826172 -0.12817383 0 0 Z " fill="#FFFFFF" transform="translate(541.96826171875,234.128173828125)"/>
</svg>
