<!DOCTYPE svg PUBLIC "-//W3C//DTD SVG 1.1//EN" "http://www.w3.org/Graphics/SVG/1.1/DTD/svg11.dtd">
<!-- Uploaded to: SVG Repo, www.svgrepo.com, Transformed by: SVG Repo Mixer Tools -->
<svg version="1.1" id="Layer_1" xmlns="http://www.w3.org/2000/svg" xmlns:xlink="http://www.w3.org/1999/xlink" viewBox="0 0 512 512" xml:space="preserve" width="800px" height="800px" fill="#000000">
<g id="SVGRepo_bgCarrier" stroke-width="0"/>
<g id="SVGRepo_tracerCarrier" stroke-linecap="round" stroke-linejoin="round"/>
<g id="SVGRepo_iconCarrier"> <polygon style="fill:#ffffff;" points="441.379,97.103 459.034,44.138 476.69,44.138 494.345,97.103 "/> <g> <path style="fill:#ffffff;" d="M459.034,44.138l5.412-32.472c0.275-1.65,1.482-2.838,2.884-2.838h1.06 c1.402,0,2.611,1.188,2.886,2.838l5.412,32.472H459.034z"/> <path style="fill:#ffffff;" d="M256,194.207L256,194.207c-4.875,0-8.828-3.953-8.828-8.828v-17.655 c0-4.875,3.953-8.828,8.828-8.828l0,0c4.875,0,8.828,3.953,8.828,8.828v17.655C264.828,190.254,260.875,194.207,256,194.207z"/> </g> <path style="fill:#ffffff;" d="M353.103,273.655H158.897l0,0c0-53.629,43.475-97.103,97.103-97.103l0,0 C309.629,176.552,353.103,220.026,353.103,273.655L353.103,273.655z"/> <rect x="61.793" y="335.45" style="fill:#ffffff;" width="388.41" height="158.9"/> <polygon style="fill:#ffffff;" points="353.103,317.793 353.103,273.655 158.897,273.655 158.897,317.793 123.586,317.793 123.586,494.345 388.414,494.345 388.414,317.793 "/> <path style="fill:#ffffff;" d="M154.483,379.586c2.438,0,4.414-1.976,4.414-4.414v-22.069c0-6.418-4.665-12.834-7.212-15.86 c-0.855-1.016-2.375-1.016-3.23,0c-2.548,3.026-7.213,9.442-7.213,15.86v22.069c0,2.438,1.976,4.414,4.414,4.414H154.483z"/> <path style="fill:#ffffff;" d="M148.454,337.242c-2.547,3.027-7.212,9.443-7.212,15.861h17.655c0-6.418-4.665-12.834-7.212-15.861 C150.828,336.227,149.31,336.227,148.454,337.242z"/> <path style="fill:#ffffff;" d="M366.345,379.586c2.438,0,4.414-1.976,4.414-4.414v-22.069c0-6.418-4.665-12.834-7.212-15.86 c-0.855-1.016-2.375-1.016-3.23,0c-2.548,3.026-7.213,9.442-7.213,15.86v22.069c0,2.438,1.976,4.414,4.414,4.414H366.345z"/> <path style="fill:#ffffff;" d="M360.316,337.242c-2.547,3.027-7.212,9.443-7.212,15.861h17.655c0-6.418-4.665-12.834-7.212-15.861 C362.69,336.227,361.172,336.227,360.316,337.242z"/> <path style="fill:#ffffff;" d="M295.724,379.586c2.438,0,4.414-1.976,4.414-4.414v-22.069c0-6.418-4.665-12.834-7.212-15.86 c-0.855-1.016-2.375-1.016-3.23,0c-2.548,3.026-7.213,9.442-7.213,15.86v22.069c0,2.438,1.976,4.414,4.414,4.414H295.724z"/> <path style="fill:#ffffff;" d="M289.695,337.242c-2.547,3.027-7.212,9.443-7.212,15.861h17.655c0-6.418-4.665-12.834-7.212-15.861 C292.069,336.227,290.551,336.227,289.695,337.242z"/> <path style="fill:#ffffff;" d="M260.414,379.586c2.438,0,4.414-1.976,4.414-4.414v-22.069c0-6.418-4.665-12.834-7.212-15.86 c-0.855-1.016-2.375-1.016-3.23,0c-2.548,3.026-7.213,9.442-7.213,15.86v22.069c0,2.438,1.976,4.414,4.414,4.414H260.414z"/> <path style="fill:#ffffff;" d="M254.385,337.242c-2.547,3.027-7.212,9.443-7.212,15.861h17.655c0-6.418-4.665-12.834-7.212-15.861 C256.759,336.227,255.241,336.227,254.385,337.242z"/> <path style="fill:#ffffff;" d="M225.103,379.586c2.438,0,4.414-1.976,4.414-4.414v-22.069c0-6.418-4.665-12.834-7.212-15.86 c-0.855-1.016-2.375-1.016-3.23,0c-2.548,3.026-7.213,9.442-7.213,15.86v22.069c0,2.438,1.976,4.414,4.414,4.414H225.103z"/> <path style="fill:#ffffff;" d="M219.074,337.242c-2.547,3.027-7.212,9.443-7.212,15.861h17.655c0-6.418-4.665-12.834-7.212-15.861 C221.449,336.227,219.93,336.227,219.074,337.242z"/> <path style="fill:#ffffff;" d="M419.31,388.414H92.69c-2.438,0-4.414,1.976-4.414,4.414v8.828c0,2.438,1.976,4.414,4.414,4.414 h4.414v88.276h317.793V406.07h4.414c2.438,0,4.414-1.976,4.414-4.414v-8.828C423.724,390.39,421.748,388.414,419.31,388.414z"/> <path style="fill:#ffffff;" d="M273.655,494.345v-58.773c0-12.545-17.655-25.089-17.655-25.089s-17.655,12.544-17.655,25.089v58.773 H273.655z"/> <polygon style="fill:#ffffff;" points="17.655,97.103 35.31,44.138 52.966,44.138 70.621,97.103 "/> <rect x="17.655" y="97.1" style="fill:#ffffff;" width="52.966" height="397.24"/> <rect x="17.655" y="326.62" style="fill:#ffffff;" width="52.966" height="167.72"/> <path style="fill:#ffffff;" d="M48.552,167.724c2.438,0,4.414-1.976,4.414-4.414v-22.069c0-8.828-8.828-17.655-8.828-17.655 s-8.828,8.828-8.828,17.655v22.069c0,2.438,1.976,4.414,4.414,4.414H48.552z"/> <rect x="441.38" y="97.1" style="fill:#ffffff;" width="52.966" height="397.24"/> <rect x="441.38" y="326.62" style="fill:#ffffff;" width="52.966" height="167.72"/> <path style="fill:#ffffff;" d="M472.276,167.724c2.438,0,4.414-1.976,4.414-4.414v-22.069c0-8.828-8.828-17.655-8.828-17.655 s-8.828,8.828-8.828,17.655v22.069c0,2.438,1.976,4.414,4.414,4.414H472.276z"/> <rect x="150.07" y="397.24" style="fill:#ffffff;" width="70.62" height="97.1"/> <path style="fill:#ffffff;" d="M185.379,335.448L185.379,335.448c-4.875,0-8.828,3.953-8.828,8.828v17.655 c0,4.875,3.953,8.828,8.828,8.828l0,0c4.875,0,8.828-3.953,8.828-8.828v-17.655C194.207,339.401,190.254,335.448,185.379,335.448z"/> <path style="fill:#ffffff;" d="M220.69,397.241h-70.621v-8.828c0-19.501,15.809-35.31,35.31-35.31l0,0 c19.501,0,35.31,15.809,35.31,35.31v8.828H220.69z"/> <rect x="291.31" y="397.24" style="fill:#ffffff;" width="70.62" height="97.1"/> <path style="fill:#ffffff;" d="M326.621,335.448L326.621,335.448c-4.875,0-8.828,3.953-8.828,8.828v17.655 c0,4.875,3.953,8.828,8.828,8.828l0,0c4.875,0,8.828-3.953,8.828-8.828v-17.655C335.448,339.401,331.496,335.448,326.621,335.448z"/> <path style="fill:#ffffff;" d="M361.931,397.241H291.31v-8.828c0-19.501,15.809-35.31,35.31-35.31l0,0 c19.501,0,35.31,15.809,35.31,35.31v8.828H361.931z"/> <path style="fill:#ffffff;" d="M256,410.483c0,0-17.655,12.544-17.655,25.088v5.809h35.31v-5.809 C273.655,423.027,256,410.483,256,410.483z"/> <path style="fill:#ffffff;" d="M256,167.724c-14.602,0-26.483-11.88-26.483-26.483c0-10.143,5.914-19.526,15.07-23.902 c4.396-2.102,9.668-0.242,11.772,4.157c2.102,4.398,0.242,9.67-4.158,11.772c-3.055,1.461-5.03,4.59-5.03,7.974 c0,4.867,3.96,8.828,8.828,8.828c1.929,0,3.758-0.608,5.291-1.76c3.897-2.926,9.432-2.143,12.36,1.757 c2.927,3.898,2.141,9.432-1.757,12.36C267.279,165.892,261.783,167.724,256,167.724z"/> <path style="fill:#ffffff;" d="M507.586,503.172H4.414c-2.438,0-4.414-1.976-4.414-4.414v-8.828c0-2.438,1.976-4.414,4.414-4.414 h503.172c2.438,0,4.414,1.976,4.414,4.414v8.828C512,501.196,510.024,503.172,507.586,503.172z"/> <g> <path style="fill:#ffffff;" d="M75.034,335.448H13.241c-2.438,0-4.414-1.976-4.414-4.414v-8.828c0-2.438,1.976-4.414,4.414-4.414 h61.793c2.438,0,4.414,1.976,4.414,4.414v8.828C79.448,333.472,77.472,335.448,75.034,335.448z"/> <path style="fill:#ffffff;" d="M498.759,335.448h-61.793c-2.438,0-4.414-1.976-4.414-4.414v-8.828c0-2.438,1.976-4.414,4.414-4.414 h61.793c2.438,0,4.414,1.976,4.414,4.414v8.828C503.172,333.472,501.196,335.448,498.759,335.448z"/> </g> <path style="fill:#ffffff;" d="M507.586,167.724h-79.448c-2.438,0-4.414-1.976-4.414-4.414v-17.655c0-2.438,1.976-4.414,4.414-4.414 h79.448c2.438,0,4.414,1.976,4.414,4.414v17.655C512,165.748,510.024,167.724,507.586,167.724z"/> <path style="fill:#ffffff;" d="M498.759,105.931h-61.793c-2.438,0-4.414-1.976-4.414-4.414V92.69c0-2.438,1.976-4.414,4.414-4.414 h61.793c2.438,0,4.414,1.976,4.414,4.414v8.828C503.172,103.955,501.196,105.931,498.759,105.931z"/> <path style="fill:#ffffff;" d="M83.862,167.724H4.414c-2.438,0-4.414-1.976-4.414-4.414v-17.655c0-2.438,1.976-4.414,4.414-4.414 h79.448c2.438,0,4.414,1.976,4.414,4.414v17.655C88.276,165.748,86.3,167.724,83.862,167.724z"/> <path style="fill:#ffffff;" d="M75.034,105.931H13.241c-2.438,0-4.414-1.976-4.414-4.414V92.69c0-2.438,1.976-4.414,4.414-4.414 h61.793c2.438,0,4.414,1.976,4.414,4.414v8.828C79.448,103.955,77.472,105.931,75.034,105.931z"/> <g> <path style="fill:#ffffff;" d="M357.517,282.483H154.483c-2.438,0-4.414-1.976-4.414-4.414v-8.828c0-2.438,1.976-4.414,4.414-4.414 h203.034c2.438,0,4.414,1.976,4.414,4.414v8.828C361.931,280.506,359.955,282.483,357.517,282.483z"/> <path style="fill:#ffffff;" d="M392.828,317.793H119.172c-2.438,0-4.414-1.976-4.414-4.414v-8.828c0-2.438,1.976-4.414,4.414-4.414 h273.655c2.438,0,4.414,1.976,4.414,4.414v8.828C397.241,315.817,395.265,317.793,392.828,317.793z"/> </g> <path style="fill:#ffffff;" d="M35.31,44.138l5.412-32.472c0.275-1.65,1.482-2.838,2.884-2.838h1.06 c1.402,0,2.611,1.188,2.886,2.838l5.412,32.472H35.31z"/> <path style="fill:#ffffff;" d="M48.552,467.862c2.438,0,4.414-1.976,4.414-4.414v-22.069c0-6.418-4.665-12.834-7.212-15.86 c-0.855-1.016-2.375-1.016-3.23,0c-2.548,3.026-7.213,9.442-7.213,15.86v22.069c0,2.438,1.976,4.414,4.414,4.414H48.552z"/> <path style="fill:#ffffff;" d="M42.522,425.518c-2.547,3.027-7.212,9.443-7.212,15.861h17.655c0-6.418-4.665-12.834-7.212-15.861 C44.897,424.503,43.379,424.503,42.522,425.518z"/> <path style="fill:#ffffff;" d="M128,467.862c2.438,0,4.414-1.976,4.414-4.414v-22.069c0-6.418-4.665-12.834-7.212-15.86 c-0.855-1.016-2.375-1.016-3.23,0c-2.548,3.026-7.213,9.442-7.213,15.86v22.069c0,2.438,1.976,4.414,4.414,4.414H128z"/> <path style="fill:#ffffff;" d="M121.971,425.518c-2.547,3.027-7.212,9.443-7.212,15.861h17.655c0-6.418-4.665-12.834-7.212-15.861 C124.345,424.503,122.827,424.503,121.971,425.518z"/> <path style="fill:#ffffff;" d="M189.793,467.862c2.438,0,4.414-1.976,4.414-4.414v-22.069c0-6.418-4.665-12.834-7.212-15.86 c-0.855-1.016-2.375-1.016-3.23,0c-2.548,3.026-7.213,9.442-7.213,15.86v22.069c0,2.438,1.976,4.414,4.414,4.414H189.793z"/> <path style="fill:#ffffff;" d="M183.764,425.518c-2.547,3.027-7.212,9.443-7.212,15.861h17.655c0-6.418-4.665-12.834-7.212-15.861 C186.138,424.503,184.62,424.503,183.764,425.518z"/> <path style="fill:#ffffff;" d="M331.034,467.862c2.438,0,4.414-1.976,4.414-4.414v-22.069c0-6.418-4.665-12.834-7.212-15.86 c-0.855-1.016-2.375-1.016-3.23,0c-2.548,3.026-7.213,9.442-7.213,15.86v22.069c0,2.438,1.976,4.414,4.414,4.414H331.034z"/> <path style="fill:#ffffff;" d="M325.005,425.518c-2.547,3.027-7.212,9.443-7.212,15.861h17.655c0-6.418-4.665-12.834-7.212-15.861 C327.38,424.503,325.862,424.503,325.005,425.518z"/> <path style="fill:#ffffff;" d="M392.828,467.862c2.438,0,4.414-1.976,4.414-4.414v-22.069c0-6.418-4.665-12.834-7.212-15.86 c-0.855-1.016-2.375-1.016-3.23,0c-2.548,3.026-7.213,9.442-7.213,15.86v22.069c0,2.438,1.976,4.414,4.414,4.414H392.828z"/> <path style="fill:#ffffff;" d="M386.798,425.518c-2.547,3.027-7.212,9.443-7.212,15.861h17.655c0-6.418-4.665-12.834-7.212-15.861 C389.173,424.503,387.655,424.503,386.798,425.518z"/> <path style="fill:#ffffff;" d="M472.276,467.862c2.438,0,4.414-1.976,4.414-4.414v-22.069c0-6.418-4.665-12.834-7.212-15.86 c-0.855-1.016-2.375-1.016-3.23,0c-2.548,3.026-7.213,9.442-7.213,15.86v22.069c0,2.438,1.976,4.414,4.414,4.414H472.276z"/> <path style="fill:#ffffff;" d="M466.247,425.518c-2.547,3.027-7.212,9.443-7.212,15.861h17.655c0-6.418-4.665-12.834-7.212-15.861 C468.621,424.503,467.103,424.503,466.247,425.518z"/> <path style="fill:#ffffff;" d="M472.276,397.241c2.438,0,4.414-1.976,4.414-4.414v-22.069c0-6.418-4.665-12.834-7.212-15.86 c-0.855-1.016-2.375-1.016-3.23,0c-2.548,3.026-7.213,9.442-7.213,15.86v22.069c0,2.438,1.976,4.414,4.414,4.414H472.276z"/> <path style="fill:#ffffff;" d="M466.247,354.898c-2.547,3.027-7.212,9.443-7.212,15.861h17.655c0-6.418-4.665-12.834-7.212-15.861 C468.621,353.882,467.103,353.882,466.247,354.898z"/> <path style="fill:#ffffff;" d="M48.552,397.241c2.438,0,4.414-1.976,4.414-4.414v-22.069c0-6.418-4.665-12.834-7.212-15.86 c-0.855-1.016-2.375-1.016-3.23,0c-2.548,3.026-7.213,9.442-7.213,15.86v22.069c0,2.438,1.976,4.414,4.414,4.414H48.552z"/> <path style="fill:#ffffff;" d="M42.522,354.898c-2.547,3.027-7.212,9.443-7.212,15.861h17.655c0-6.418-4.665-12.834-7.212-15.861 C44.897,353.882,43.379,353.882,42.522,354.898z"/> <path style="fill:#ffffff;" d="M48.552,300.138c2.438,0,4.414-1.976,4.414-4.414v-22.069c0-6.418-4.665-12.834-7.212-15.86 c-0.855-1.016-2.375-1.016-3.23,0c-2.548,3.026-7.213,9.442-7.213,15.86v22.069c0,2.438,1.976,4.414,4.414,4.414H48.552z"/> <path style="fill:#ffffff;" d="M42.522,257.794c-2.547,3.027-7.212,9.443-7.212,15.861h17.655c0-6.418-4.665-12.834-7.212-15.861 C44.897,256.779,43.379,256.779,42.522,257.794z"/> <path style="fill:#ffffff;" d="M48.552,229.517c2.438,0,4.414-1.976,4.414-4.414v-22.069c0-6.418-4.665-12.834-7.212-15.86 c-0.855-1.016-2.375-1.016-3.23,0c-2.548,3.026-7.213,9.442-7.213,15.86v22.069c0,2.438,1.976,4.414,4.414,4.414H48.552z"/> <path style="fill:#ffffff;" d="M42.522,187.174c-2.547,3.027-7.212,9.443-7.212,15.861h17.655c0-6.418-4.665-12.834-7.212-15.861 C44.897,186.158,43.379,186.158,42.522,187.174z"/> <path style="fill:#ffffff;" d="M472.276,300.138c2.438,0,4.414-1.976,4.414-4.414v-22.069c0-6.418-4.665-12.834-7.212-15.86 c-0.855-1.016-2.375-1.016-3.23,0c-2.548,3.026-7.213,9.442-7.213,15.86v22.069c0,2.438,1.976,4.414,4.414,4.414H472.276z"/> <path style="fill:#ffffff;" d="M466.247,257.794c-2.547,3.027-7.212,9.443-7.212,15.861h17.655c0-6.418-4.665-12.834-7.212-15.861 C468.621,256.779,467.103,256.779,466.247,257.794z"/> <path style="fill:#ffffff;" d="M472.276,229.517c2.438,0,4.414-1.976,4.414-4.414v-22.069c0-6.418-4.665-12.834-7.212-15.86 c-0.855-1.016-2.375-1.016-3.23,0c-2.548,3.026-7.213,9.442-7.213,15.86v22.069c0,2.438,1.976,4.414,4.414,4.414H472.276z"/> <path style="fill:#ffffff;" d="M466.247,187.174c-2.547,3.027-7.212,9.443-7.212,15.861h17.655c0-6.418-4.665-12.834-7.212-15.861 C468.621,186.158,467.103,186.158,466.247,187.174z"/> </g>
</svg>